<?xml version="1.0" encoding="utf-8"?>
<!-- Generator: Adobe Illustrator 17.1.0, SVG Export Plug-In . SVG Version: 6.00 Build 0)  -->
<!DOCTYPE svg PUBLIC "-//W3C//DTD SVG 1.1//EN" "http://www.w3.org/Graphics/SVG/1.1/DTD/svg11.dtd">
<svg version="1.1" id="Layer_1" xmlns="http://www.w3.org/2000/svg" xmlns:xlink="http://www.w3.org/1999/xlink" x="0px" y="0px"
	 viewBox="0 0 314.3 121.5" enable-background="new 0 0 314.3 121.5" xml:space="preserve">
<path fill="#0F7AC0" d="M306.5,70.5c-27.8-25.4-77-27.6-77.5-27.6l-2.2-0.1l-1.6-1.5c-0.3-0.3-32.4-29.3-76.9-29.3
	c-53.1,0-89.1,39.7-89.5,40.1l-2,2.2L0.5,49l1.8-11.8L52,41.9C61,32.9,96.8,0,148.3,0c43.8,0,75.7,24.7,83.3,31
	c10.4,0.7,54.9,4.9,82.8,30.5L306.5,70.5z"/>
<path fill="#010101" d="M35.3,90.8c-1.4-2.8-4.6-8.3-12.5-8.3c-10.7,0-14.5,9-14.5,15.7c0,7.7,4.9,15.7,14.4,15.7
	c6.2,0,10.5-3.6,12.6-8.2h9.3c-3.4,9.8-12,15.7-21.8,15.7C8.2,121.5,0,109.6,0,98.1c0-12,8.8-23.3,22.8-23.3
	c12.5,0,20.1,9.4,21.7,15.9H35.3z"/>
<path fill="#0F7AC0" d="M87.2,120.4v-6.9H87c-3.2,5.4-9,8-15,8c-14.9,0-23.5-11.4-23.5-23.1c0-10.8,7.6-23.5,23.5-23.5
	c6.2,0,11.8,2.6,15,7.4h0.2v-6.2h8.3v44.3H87.2z M72,82.5c-10.2,0-15.2,8.9-15.2,15.8c0,8,6.3,15.6,15.1,15.6
	c8.7,0,15.4-7.1,15.4-15.6C87.4,88.9,80.6,82.5,72,82.5z"/>
<path fill="#010101" d="M201.2,120.4v-6.9H201c-3.2,5.4-9,8-15,8c-14.9,0-23.5-11.4-23.5-23.1c0-10.8,7.6-23.5,23.5-23.5
	c6.2,0,11.8,2.6,15,7.4h0.2v-6.2h8.3v44.3H201.2z M186,82.5c-10.2,0-15.2,8.9-15.2,15.8c0,8,6.3,15.6,15.1,15.6
	c8.7,0,15.4-7.1,15.4-15.6C201.3,88.9,194.5,82.5,186,82.5z"/>
<path fill="#010101" d="M224.4,120.4H216V61.2h8.3V120.4z"/>
<path fill="#0F7AC0" d="M237.7,101.8c2.1,8.6,9,12.1,14.5,12.1c6.2,0,10.6-3.6,12.6-7.4h8.3c-4.2,11.4-14.4,15-21.3,15
	c-12.5,0-22.5-10.8-22.5-23.3c0-13.3,10.2-23.3,22.7-23.3c12,0,22.5,9.8,22.5,22.7c0,1.4-0.2,3.7-0.2,4.2H237.7z M266.3,95.4
	c-0.4-6.5-6.3-12.9-14.3-12.9c-8,0-13.9,6.5-14.3,12.9H266.3z"/>
<path fill="#010101" d="M288.4,87.4c0.1-1.8,1.6-5.4,7-5.4c5.4,0,7.2,4.6,7.4,6.1l8.1,0c0-3.4-3.6-13.2-15.4-13.2
	c-11.8,0-14.6,8.4-14.8,12.2c-0.6,14.4,23.2,11.8,22.8,21.2c-0.1,1.7-1.7,5.9-8.6,5.9c-6.7,0-8.9-5.5-9-7.8h-8
	c0.4,4.3,3.6,15,17.1,15c13.5,0,16.1-9.6,16.3-13.1C311.9,93.4,288.1,94.3,288.4,87.4z"/>
<path fill="#010101" d="M136,87.4c0.1-1.8,1.6-5.4,7-5.4c5.4,0,7.2,4.6,7.4,6.1l8.1,0c0-3.4-3.6-13.2-15.4-13.2
	c-11.8,0-14.6,8.4-14.8,12.2c-0.6,14.4,23.2,11.8,22.8,21.2c-0.1,1.7-1.7,5.9-8.6,5.9c-6.7,0-8.9-5.5-9-7.8h-8
	c0.4,4.3,3.6,15,17.1,15c13.5,0,16.1-9.6,16.3-13.1C159.4,93.4,135.7,94.3,136,87.4z"/>
<g>
	<path fill="#010101" d="M122.2,74.9c-8.2,0-11.1,4.2-12.7,6h-0.1v-4.8h-7.7v44.3h8.3V96.2c0-3.3,0-13.3,11-13.3
		c0.9,0,1.8,0.2,2.7,0.5l3.7-7.5C125.6,75.3,123.8,74.9,122.2,74.9z"/>
</g>
</svg>
